<svg id="Group_3153" data-name="Group 3153" xmlns="http://www.w3.org/2000/svg" xmlns:xlink="http://www.w3.org/1999/xlink" width="39" height="39" viewBox="0 0 39 39">
  <defs>
    <linearGradient id="linear-gradient" x1="0.5" x2="0.5" y2="1" gradientUnits="objectBoundingBox">
      <stop offset="0" stop-color="#0064bb"/>
      <stop offset="1" stop-color="#633cd2"/>
    </linearGradient>
  </defs>
  <path id="Path_2049" data-name="Path 2049" d="M0,0H39V39H0Z" fill="none"/>
  <path id="Path_2050" data-name="Path 2050" d="M8.5,13.375H31.149l.813-3.25H11.75V6.875h22.3a1.625,1.625,0,0,1,1.576,2.02l-4.062,16.25a1.625,1.625,0,0,1-1.576,1.23H6.875A1.625,1.625,0,0,1,5.25,24.75V5.25H2V2H6.875A1.625,1.625,0,0,1,8.5,3.625Zm0,22.75a3.25,3.25,0,1,1,3.25-3.25A3.25,3.25,0,0,1,8.5,36.125Zm19.5,0a3.25,3.25,0,1,1,3.25-3.25A3.25,3.25,0,0,1,28,36.125Z" transform="translate(1.25 1.25)" fill="url(#linear-gradient)"/>
</svg>
