<svg id="Group_1472" data-name="Group 1472" xmlns="http://www.w3.org/2000/svg" width="14" height="14" viewBox="0 0 14 14">
  <path id="Path_1157" data-name="Path 1157" d="M0,0H14V14H0Z" fill="none"/>
  <path id="Path_1158" data-name="Path 1158" d="M1.583,5.733h1.75v7H1.583A.583.583,0,0,1,1,12.15V6.317a.583.583,0,0,1,.583-.583Zm3.088-.754L8.4,1.246a.292.292,0,0,1,.382-.027l.5.373a.875.875,0,0,1,.323.916L8.933,5.15h3.733a1.167,1.167,0,0,1,1.167,1.167V7.544a1.167,1.167,0,0,1-.087.444L11.94,12.372a.583.583,0,0,1-.54.361H5.083A.583.583,0,0,1,4.5,12.15V5.392a.583.583,0,0,1,.171-.412Z" transform="translate(-0.417 -0.483)" fill="#4cb70f"/>
</svg>
