<svg id="Group_2628" data-name="Group 2628" xmlns="http://www.w3.org/2000/svg" xmlns:xlink="http://www.w3.org/1999/xlink" width="24.943" height="28.182" viewBox="0 0 24.943 28.182">
  <defs>
    <clipPath id="clip-path">
      <rect id="Rectangle_1081" data-name="Rectangle 1081" width="24.943" height="28.182" fill="#2f51c6"/>
    </clipPath>
  </defs>
  <g id="Group_2627" data-name="Group 2627" clip-path="url(#clip-path)">
    <path id="Path_1770" data-name="Path 1770" d="M11.627,0h1.689c.219.038.437.082.658.112,3.735.507,6.776,3.495,6.807,6.7.011,1.146,0,2.293,0,3.439v.318c.378,0,.722,0,1.066,0a2.889,2.889,0,0,1,3.09,2.629q.007,6.177,0,12.354a2.436,2.436,0,0,1-1.05,1.967,3.963,3.963,0,0,1-1.611.663H2.663a.679.679,0,0,0-.116-.045A2.762,2.762,0,0,1,0,25.442q0-6.067,0-12.133a2.4,2.4,0,0,1,.03-.493,3.012,3.012,0,0,1,3.19-2.247h.936c0-1.181-.012-2.318.006-3.454A5.969,5.969,0,0,1,4.3,5.8C4.974,3,6.946,1.163,10.153.283c.477-.131.982-.19,1.474-.283m6.364,10.557c0-1.331,0-2.632,0-3.933a2.083,2.083,0,0,0-.085-.488c-.631-2.5-3.27-4.071-6.269-3.723-2.593.3-4.659,2.27-4.688,4.484-.015,1.164,0,2.328,0,3.492,0,.052.008.1.014.168Zm-5.48,4.718a2.763,2.763,0,0,0-2.664,1.607,2.117,2.117,0,0,0,1,2.609.436.436,0,0,1,.253.428c-.013.77-.007,1.54,0,2.311a1.306,1.306,0,0,0,.034.354,1.361,1.361,0,0,0,1.509.88,1.222,1.222,0,0,0,1.2-1.139q.012-1.224,0-2.448a.37.37,0,0,1,.214-.361,2.132,2.132,0,0,0,1.057-2.6,2.746,2.746,0,0,0-2.6-1.644" transform="translate(-0.001)" fill="#2f51c6"/>
  </g>
</svg>
