<svg id="Layer_4" data-name="Layer 4" xmlns="http://www.w3.org/2000/svg" viewBox="0 0 142.49 64.97"><path d="M89.84,59.83h0Z" transform="translate(-21.44 -21.07)"/><polygon points="68.44 39.1 68.39 39.29 68.38 39.23 68.38 39.22 68.44 39.1"/><path d="M90,59.86v0l-.06,0Z" transform="translate(-21.44 -21.07)"/><path d="M89.84,59.83h-.13l0,0h.1Z" transform="translate(-21.44 -21.07)"/><path d="M89.88,60.18l0,.19,0,.09-.22.95-.29-.07.47-1,0-.08h0Z" transform="translate(-21.44 -21.07)"/><path d="M90,59.86v0l-.06,0Z" transform="translate(-21.44 -21.07)"/><path d="M92.6,21.17l-.35,0h-.14l-.5,0h-.27c-.43,0-.9,0-1.29,0h-.16c-15.59,0-28.27,9.05-28.27,20.17s12.52,20,28,20.16h.3c15.59,0,28.26-9.05,28.26-20.17C118.15,30.78,106.92,22.15,92.6,21.17Zm23.91,19h-5.79c-.58-9.19-8.66-14.37-14.54-16.94C107.36,25.08,115.81,31.9,116.51,40.14Zm-7.39,0h-5.83c-.37-7.47-4.71-12.66-8.28-15.71C100.55,26.74,108.52,31.53,109.12,40.14Zm0,1.59a14.29,14.29,0,0,1-2.77,8,39,39,0,0,0-4.24-1.63,20,20,0,0,0,1.16-6.34ZM76.84,36.37a.13.13,0,0,0,0,.06,21.56,21.56,0,0,0-.44,2.39c0,.25-.06.5-.08.76s0,.32,0,.48a.21.21,0,0,0,0,.08.49.49,0,0,0,0,.12v-.12H70.57c.65-7.68,7.61-12.46,13-15A21.94,21.94,0,0,0,76.84,36.37Zm.58,11.73a38.46,38.46,0,0,0-4.13,1.66,14.09,14.09,0,0,1-2.77-8h5.72A19.61,19.61,0,0,0,77.42,48.1Zm1.64-5h22.55a18.18,18.18,0,0,1-1,4.46,40.36,40.36,0,0,0-10.85-1.51,38.86,38.86,0,0,0-10.83,1.54,18.16,18.16,0,0,1-1-4.69A3,3,0,0,0,79.06,43.14ZM90.19,23c2.35,1.35,10.33,6.62,11.4,16.09H80.84C81.63,31.13,87,25.6,90.19,23Zm-6.33.21C78,25.76,69.62,31,69,40.14H63.27C64,31.84,72.55,25,83.86,23.16ZM63.24,41.73h5.68a15.58,15.58,0,0,0,2.92,8.75,28.08,28.08,0,0,0-3.24,2A15.36,15.36,0,0,1,63.24,41.73ZM69.87,53.5a29.24,29.24,0,0,1,3-1.72,29.7,29.7,0,0,0,10.68,7.51A30.14,30.14,0,0,1,69.87,53.5Zm4.46-2.44A36,36,0,0,1,78,49.6,24.74,24.74,0,0,0,84.49,58,28.38,28.38,0,0,1,74.33,51.06Zm5.24-1.94a37.27,37.27,0,0,1,10.2-1.44A37.92,37.92,0,0,1,100,49.1,24.76,24.76,0,0,1,89.78,59.79,25.35,25.35,0,0,1,79.57,49.12Zm22,.45A39.45,39.45,0,0,1,105.34,51a28.42,28.42,0,0,1-10.23,7A24.34,24.34,0,0,0,101.53,49.57Zm-5.48,9.75a29.67,29.67,0,0,0,10.8-7.62A33.32,33.32,0,0,1,110,53.44,30.09,30.09,0,0,1,96.05,59.32Zm15.22-7a36,36,0,0,0-3.43-2,15.82,15.82,0,0,0,2.9-8.66h5.8A15.35,15.35,0,0,1,111.27,52.35Z" transform="translate(-21.44 -21.07)"/><path d="M158.44,65.94a2.75,2.75,0,1,1,2.75,2.75A2.73,2.73,0,0,1,158.44,65.94Zm.44,0a2.31,2.31,0,1,0,2.31-2.29A2.3,2.3,0,0,0,158.88,65.94Zm3.56,1.57h-.51l-.79-1.43h-.57v1.43h-.44V64.43h1.29c.56,0,1.06.16,1.06.81a.77.77,0,0,1-.82.84Zm-1.87-2.64v.77h.48c.41,0,1,.07,1-.35s-.33-.42-.7-.42Z" transform="translate(-21.44 -21.07)"/><path d="M76.27,40.14a.49.49,0,0,0,0,.12v-.12Z" transform="translate(-21.44 -21.07)"/><path d="M21.44,64.52h8.09v16h5.88v5.2h-14Z" transform="translate(-21.44 -21.07)"/><path d="M56.93,75.2C56.93,82,51.87,86,45.64,86S34.35,82,34.35,75.2A10.89,10.89,0,0,1,45.6,64.07C51.8,64.07,56.93,68.56,56.93,75.2ZM42.73,75c0,2.42.66,5.53,2.91,5.53s2.91-3.11,2.91-5.53c0-2.23-.55-5.42-2.91-5.42S42.73,72.73,42.73,75Z" transform="translate(-21.44 -21.07)"/><path d="M74.36,70.55a5.06,5.06,0,0,0-4.3-1.36C67,69.6,65.38,72.28,65.38,75s2.33,5.38,4.69,5.59a5.56,5.56,0,0,0,4.29-.94v5.52a17.64,17.64,0,0,1-5.58.85c-6.56,0-11.69-4.68-11.69-10.71S62.24,64.07,69,64.07a17.14,17.14,0,0,1,5.36.57Z" transform="translate(-21.44 -21.07)"/><path d="M74.72,64.5h8.13V73c.15-.3,4.52-8.49,4.52-8.49h9.08L90.06,74.64l6.59,11.08H87.21l-4.36-8.64v8.66H74.72Z" transform="translate(-21.44 -21.07)"/><path d="M96.56,64.5h17.31v5.59h-4.6V85.72h-8.17V70.09H96.56Z" transform="translate(-21.44 -21.07)"/><path d="M136.42,64.6h8.87l4.81,10.49L150,64.6h8.13V85.8h-8.95l-4.46-10.17V85.81h-8.31Z" transform="translate(-21.44 -21.07)"/><path d="M136.17,75.12c0,6.77-5.35,10.92-11.73,10.92s-11.39-4.15-11.39-10.92,5.22-11.07,11.56-11.07S136.17,68.49,136.17,75.12ZM121.63,75c0,2.41.68,5.43,3,5.43s3-3,3-5.43c0-2.24-.56-5.48-3-5.48S121.63,72.71,121.63,75Z" transform="translate(-21.44 -21.07)"/><path d="M89.84,59.83h-.13l0,0,0,0,0,0Z" transform="translate(-21.44 -21.07)"/><polygon points="68.45 39.55 68.37 39.38 68.33 39.31 68.38 39.23 68.38 39.22 68.44 39.1 68.39 39.29 68.45 39.55"/><path d="M90,59.86v0l-.06,0Z" transform="translate(-21.44 -21.07)"/><path d="M76.83,36.43a21.56,21.56,0,0,0-.44,2.39A16.56,16.56,0,0,1,76.83,36.43Z" transform="translate(-21.44 -21.07)"/><path d="M89.84,59.83h-.13l0,0,0,0,0,0Z" transform="translate(-21.44 -21.07)"/><path d="M76.27,40.06a.21.21,0,0,0,0,.08.49.49,0,0,0,0,.12v-.14A.13.13,0,0,1,76.27,40.06Z" transform="translate(-21.44 -21.07)"/></svg>