<svg xmlns="http://www.w3.org/2000/svg" width="52" height="52" viewBox="0 0 52 52">
  <g id="Group_1424" data-name="Group 1424" transform="translate(-1803 -175)">
    <circle id="Ellipse_55" data-name="Ellipse 55" cx="26" cy="26" r="26" transform="translate(1803 175)" fill="#4cb70f"/>
    <g id="Group_978" data-name="Group 978" transform="translate(1817 189)">
      <path id="Path_1135" data-name="Path 1135" d="M0,0H24V24H0Z" fill="none"/>
      <path id="Path_1136" data-name="Path 1136" d="M5,19H6.414l9.314-9.314L14.314,8.272,5,17.586Zm16,2H3V16.757L16.435,3.322a1,1,0,0,1,1.414,0l2.829,2.829a1,1,0,0,1,0,1.414L9.243,19H21ZM15.728,6.858l1.414,1.414,1.414-1.414L17.142,5.444,15.728,6.858Z" fill="#fff"/>
    </g>
  </g>
</svg>
