<svg id="Group_2625" data-name="Group 2625" xmlns="http://www.w3.org/2000/svg" xmlns:xlink="http://www.w3.org/1999/xlink" width="28.063" height="20.709" viewBox="0 0 28.063 20.709">
  <defs>
    <clipPath id="clip-path">
      <rect id="Rectangle_1080" data-name="Rectangle 1080" width="28.063" height="20.709" fill="#2f51c6"/>
    </clipPath>
  </defs>
  <g id="Group_2624" data-name="Group 2624" clip-path="url(#clip-path)">
    <path id="Path_1766" data-name="Path 1766" d="M28.063,74.884c-.071.26-.128.526-.215.781a4.124,4.124,0,0,1-3.788,2.827c-.082,0-.164,0-.247,0q-9.781,0-19.561,0A4.1,4.1,0,0,1,.221,75.666a3.753,3.753,0,0,1-.209-1.149C0,70.946,0,67.376,0,63.8c0-.043.005-.086.01-.161.106.059.191.1.274.154q6.367,3.879,12.732,7.762a1.787,1.787,0,0,0,2.028,0q6.373-3.9,12.755-7.777c.085-.052.176-.092.264-.138Z" transform="translate(0 -57.787)" fill="#2f51c6"/>
    <path id="Path_1767" data-name="Path 1767" d="M1.381,3.25A4.1,4.1,0,0,1,4.476.115a5.151,5.151,0,0,1,1.03-.11Q15.287,0,25.068,0a4.181,4.181,0,0,1,4.058,2.925.349.349,0,0,1-.185.492Q22.233,7.5,15.538,11.6a.377.377,0,0,1-.464.028Q8.32,7.49,1.557,3.367c-.062-.038-.12-.08-.176-.117" transform="translate(-1.254 0)" fill="#2f51c6"/>
  </g>
</svg>
