<svg id="Group_4106" data-name="Group 4106" xmlns="http://www.w3.org/2000/svg" width="21.595" height="21.595" viewBox="0 0 21.595 21.595">
  <path id="Path_2306" data-name="Path 2306" d="M0,0H21.595V21.595H0Z" fill="none"/>
  <path id="Path_2307" data-name="Path 2307" d="M18.3,20H3.9a.9.9,0,0,1-.9-.9V2.9A.9.9,0,0,1,3.9,2H18.3a.9.9,0,0,1,.9.9V19.1A.9.9,0,0,1,18.3,20Zm-.9-1.8V3.8H4.8V18.2ZM7.5,6.5h7.2V8.3H7.5Zm0,3.6h7.2v1.8H7.5Zm0,3.6h7.2v1.8H7.5Z" transform="translate(-0.301 -0.2)" fill="#2156c2"/>
</svg>
