<svg xmlns="http://www.w3.org/2000/svg" width="30.064" height="27.535" viewBox="0 0 30.064 27.535">
  <g id="Group_3743" data-name="Group 3743" transform="translate(-1232 -458)">
    <path id="Path_2194" data-name="Path 2194" d="M58-16.623a1.285,1.285,0,0,1,1.221-.888,1.221,1.221,0,0,1,1.074.6c.294.447.591.893.876,1.323.294-.77.529-1.553.881-2.278a13.187,13.187,0,0,1,10.44-7.792,12.959,12.959,0,0,1,12.437,4.907,13.771,13.771,0,0,1,.251,17.181,12.9,12.9,0,0,1-9.263,5.208,13.288,13.288,0,0,1-12.642-5.7,1.247,1.247,0,0,1,.614-2.009,1.225,1.225,0,0,1,1.385.514,11.48,11.48,0,0,0,2.688,2.722A11.114,11.114,0,0,0,85.149-9.068a11.141,11.141,0,0,0-7.82-13.618,11.116,11.116,0,0,0-13.721,7.9c-.012.045-.017.092-.033.179.655-.442,1.274-.867,1.9-1.279a1.21,1.21,0,0,1,1.4.02,1.132,1.132,0,0,1,.489,1.283,1.462,1.462,0,0,1-.5.755c-1.367.961-2.757,1.89-4.149,2.814a1.25,1.25,0,0,1-1.826-.434q-1.451-2.2-2.893-4.406Z" transform="translate(1174 483.813)" fill="#5143ce"/>
    <path id="Path_2195" data-name="Path 2195" d="M249.619,57.642c0-1.018,0-2.036,0-3.054a1.256,1.256,0,1,1,2.5,0q.007,2.716,0,5.433a.624.624,0,0,0,.2.487q1.6,1.6,3.177,3.212a1.2,1.2,0,0,1,.309,1.3,1.186,1.186,0,0,1-.978.826,1.17,1.17,0,0,1-1.076-.338q-1.895-1.9-3.775-3.817a1.272,1.272,0,0,1-.359-.933Q249.621,59.2,249.619,57.642Z" transform="translate(997.393 410.956)" fill="#5143ce"/>
  </g>
</svg>
