<svg xmlns="http://www.w3.org/2000/svg" width="32" height="32" viewBox="0 0 32 32">
  <g id="Group_3750" data-name="Group 3750" transform="translate(-1115 -456)">
    <g id="Ellipse_133" data-name="Ellipse 133" transform="translate(1115 456)" fill="#fff" stroke="#e88f54" stroke-width="1">
      <circle cx="16" cy="16" r="16" stroke="none"/>
      <circle cx="16" cy="16" r="15.5" fill="none"/>
    </g>
    <g id="Group_3746" data-name="Group 3746" transform="translate(927.9 511.277)">
      <path id="Path_2200" data-name="Path 2200" d="M203.371-46a3.8,3.8,0,0,1,.671.256,1.735,1.735,0,0,1,.832,1.78c-.087.948-.161,1.9-.241,2.846q-.131,1.56-.264,3.12c-.06.712-.121,1.423-.175,2.135a1.069,1.069,0,0,1-.606.958,1.025,1.025,0,0,1-1.45-.755c-.057-.4-.079-.8-.113-1.2q-.121-1.416-.238-2.832-.115-1.368-.229-2.737c-.043-.511-.078-1.022-.131-1.532a1.758,1.758,0,0,1,1.349-1.994c.052-.012.1-.028.155-.042Z" transform="translate(0)" fill="#e88f54"/>
      <path id="Path_2201" data-name="Path 2201" d="M219.495,282.7a1.126,1.126,0,1,1-1.129,1.123A1.131,1.131,0,0,1,219.495,282.7Z" transform="translate(-16.341 -316.882)" fill="#e88f54"/>
    </g>
  </g>
</svg>
