<svg xmlns="http://www.w3.org/2000/svg" width="32" height="32" viewBox="0 0 32 32">
  <g id="Group_3748" data-name="Group 3748" transform="translate(-1156 -456)">
    <g id="Ellipse_137" data-name="Ellipse 137" transform="translate(1156 456)" fill="#fffdf5" stroke="#e5c441" stroke-width="1">
      <circle cx="16" cy="16" r="16" stroke="none"/>
      <circle cx="16" cy="16" r="15.5" fill="none"/>
    </g>
    <g id="Group_3745" data-name="Group 3745" transform="translate(1164 464)">
      <path id="Path_2198" data-name="Path 2198" d="M0,0H16V16H0Z" fill="none"/>
      <path id="Path_2199" data-name="Path 2199" d="M8.667,2a.667.667,0,0,1,.667.667v2A.667.667,0,0,1,8,4.667v-2A.667.667,0,0,1,8.667,2Zm0,10a.667.667,0,0,1,.667.667v2a.667.667,0,0,1-1.333,0v-2A.667.667,0,0,1,8.667,12Zm6.667-3.333a.667.667,0,0,1-.667.667h-2a.667.667,0,0,1,0-1.333h2A.667.667,0,0,1,15.333,8.667Zm-10,0a.667.667,0,0,1-.667.667h-2A.667.667,0,0,1,2.667,8h2A.667.667,0,0,1,5.333,8.667Zm8.047,4.714a.667.667,0,0,1-.943,0l-1.414-1.414a.667.667,0,1,1,.943-.943l1.414,1.413a.667.667,0,0,1,0,.943ZM6.309,6.309a.667.667,0,0,1-.943,0L3.953,4.9A.667.667,0,1,1,4.9,3.953L6.309,5.367a.667.667,0,0,1,0,.943ZM3.953,13.381a.667.667,0,0,1,0-.943l1.414-1.414a.667.667,0,1,1,.943.943L4.9,13.381a.667.667,0,0,1-.943,0Zm7.071-7.071a.667.667,0,0,1,0-.943l1.413-1.414a.667.667,0,1,1,.943.943L11.967,6.309a.667.667,0,0,1-.943,0Z" transform="translate(-0.667 -0.667)" fill="#e5c441"/>
    </g>
  </g>
</svg>
